<svg width="512" height="512" viewBox="0 0 512 512" fill="none" xmlns="http://www.w3.org/2000/svg">
<g clip-path="url(#clip0_14026_3)">
<path d="M252.056 211.209H173.096C167.262 224.086 154.348 233.058 139.316 233.058C118.82 233.058 102.206 216.411 102.206 195.877C102.206 175.34 118.82 158.693 139.316 158.693C154.348 158.693 167.262 167.665 173.096 180.542H234.386L208.398 135.443H69.466L0 256.001L31.398 310.491H122.1C124.69 303.986 131.006 299.375 138.422 299.375C148.142 299.375 156.02 307.268 156.02 317.008C156.02 326.747 148.142 334.64 138.422 334.64C131.148 334.64 124.908 330.216 122.228 323.907H39.128L69.466 376.557H208.398L277.864 256.001L252.056 211.209Z" fill="#83292A"/>
<path d="M511.49 120.556L442.024 0H379.708L334.52 78.4528C338.848 83.9516 339.676 91.739 335.968 98.1757C331.11 106.61 320.348 109.502 311.93 104.632C303.512 99.7648 300.628 88.9815 305.484 80.5469C309.122 74.2344 316.066 71.0301 322.858 71.8577L364.248 0H303.092L233.624 120.556L303.092 241.114H356.356L395.154 172.47C386.844 161.038 385.416 145.357 392.824 132.251C402.924 114.382 425.57 108.099 443.402 118.219C461.236 128.339 467.506 151.028 457.406 168.897C449.998 182.003 435.842 188.843 421.786 187.582L391.528 241.114H442.024L511.49 120.556Z" fill="#83292A"/>
<path d="M481.714 444.003L512 391.444L442.534 270.886H303.602L277.806 315.654L317.464 384.728C331.514 383.372 345.716 390.115 353.212 403.171C363.432 420.97 357.316 443.703 339.552 453.943C321.786 464.183 299.1 458.055 288.88 440.254C281.384 427.198 282.704 411.507 290.936 400.02L260.118 346.349L234.134 391.444L303.602 511.999H442.534L473.992 457.404L428.764 379.292C421.848 380.312 414.698 377.151 410.976 370.723C406.1 362.3 408.96 351.509 417.368 346.621C425.774 341.735 436.544 344.603 441.42 353.026C445.072 359.33 444.382 366.959 440.282 372.448L481.714 444.003Z" fill="#83292A"/>
<path d="M440.4 151.026C440.4 159.494 433.55 166.358 425.098 166.358C416.646 166.358 409.794 159.494 409.794 151.026C409.794 142.557 416.646 135.693 425.098 135.693C433.55 135.693 440.4 142.557 440.4 151.026Z" fill="#B3B2B2"/>
<path d="M154.618 195.876C154.618 204.343 147.766 211.208 139.316 211.208C130.864 211.208 124.012 204.343 124.012 195.876C124.012 187.408 130.864 180.542 139.316 180.542C147.766 180.542 154.618 187.408 154.618 195.876Z" fill="#B3B2B2"/>
<path d="M335.958 422.041C335.958 430.51 329.106 437.374 320.654 437.374C312.204 437.374 305.352 430.51 305.352 422.041C305.352 413.573 312.204 406.707 320.654 406.707C329.106 406.707 335.958 413.573 335.958 422.041Z" fill="#B3B2B2"/>
<path d="M425.098 124.345C410.662 124.345 398.916 136.114 398.916 150.578C398.916 157.41 401.61 163.556 405.912 168.209L360.346 248.161H299.312L264.626 188.914H164.014C160.99 177.804 150.968 169.578 138.932 169.578C124.496 169.578 112.75 181.347 112.75 195.812C112.75 210.276 124.496 222.043 138.932 222.043C150.752 222.043 160.636 214.116 163.858 203.311H256.038L286.68 255.69L252.768 315.209L302.602 403.301C297.848 408.042 294.856 414.545 294.856 421.781C294.856 436.246 306.602 448.015 321.038 448.015C335.474 448.015 347.22 436.246 347.22 421.781C347.22 407.317 335.474 395.554 321.038 395.554C319.06 395.554 317.158 395.832 315.308 396.257L269.566 315.109L300.076 262.802H368.57L418.492 175.836C420.612 176.411 422.798 176.81 425.098 176.81C439.534 176.81 451.28 165.043 451.28 150.578C451.28 136.114 439.534 124.345 425.098 124.345ZM425.098 172.516C422.032 172.516 419.118 171.87 416.468 170.728L366.088 258.513H297.62L264.622 315.073L313.334 401.315C315.74 400.403 318.318 399.842 321.038 399.842C333.112 399.842 342.934 409.684 342.934 421.781C342.934 433.881 333.112 443.727 321.038 443.727C308.962 443.727 299.142 433.881 299.142 421.781C299.142 414.543 302.7 408.163 308.114 404.165L257.7 315.221L291.63 255.66L258.496 199.016L160.504 199.024C158.938 209.591 149.91 217.749 138.932 217.749C126.858 217.749 117.036 207.908 117.036 195.812C117.036 183.714 126.858 173.872 138.932 173.872C150.12 173.872 159.266 182.349 160.566 193.215L262.17 193.209L296.854 252.455H362.834L411.294 167.466C406.396 163.44 403.202 157.408 403.202 150.578C403.202 138.481 413.022 128.639 425.098 128.639C437.172 128.639 446.994 138.481 446.994 150.578C446.994 162.674 437.172 172.516 425.098 172.516Z" fill="#040707"/>
</g>
<defs>
<clipPath id="clip0_14026_3">
<rect width="512" height="512" fill="white"/>
</clipPath>
</defs>
</svg>
