<svg width="192" height="192" viewBox="0 0 192 192" fill="none" xmlns="http://www.w3.org/2000/svg">
<g clip-path="url(#clip0_14026_12)">
<path d="M94.521 79.204H64.911C62.7232 84.0331 57.8805 87.3975 52.2435 87.3975C44.5575 87.3975 38.3273 81.1549 38.3273 73.4545C38.3273 65.7533 44.5575 59.5107 52.2435 59.5107C57.8805 59.5107 62.7232 62.8751 64.911 67.7041H87.8948L78.1492 50.792H26.0498L0 96.0012L11.7743 116.435H45.7875C46.7587 113.995 49.1272 112.266 51.9082 112.266C55.5532 112.266 58.5075 115.226 58.5075 118.879C58.5075 122.531 55.5532 125.491 51.9082 125.491C49.1805 125.491 46.8405 123.832 45.8355 121.466H14.673L26.0498 141.21H78.1492L104.199 96.0012L94.521 79.204Z" fill="#83292A"/>
<path d="M191.809 45.2084L165.759 0H142.39L125.445 29.4198C127.068 31.4819 127.378 34.4021 125.988 36.8159C124.166 39.9789 120.13 41.0633 116.974 39.2372C113.817 37.4118 112.735 33.3681 114.556 30.2051C115.921 27.8379 118.525 26.6363 121.072 26.9467L136.593 0H113.659L87.6089 45.2084L113.659 90.4176H133.633L148.183 64.6763C145.066 60.3891 144.531 54.5088 147.309 49.5941C151.096 42.8931 159.589 40.5372 166.276 44.3322C172.963 48.1272 175.315 56.6355 171.527 63.3364C168.749 68.2511 163.441 70.8159 158.17 70.3433L146.823 90.4176H165.759L191.809 45.2084Z" fill="#83292A"/>
<path d="M180.643 166.501L192 146.791L165.95 101.582H113.851L104.177 118.37L119.049 144.273C124.318 143.764 129.644 146.293 132.455 151.189C136.287 157.864 133.994 166.388 127.332 170.228C120.67 174.069 112.163 171.77 108.33 165.095C105.519 160.199 106.014 154.315 109.101 150.008L97.5443 129.881L87.8003 146.791L113.851 192H165.95L177.747 171.526L160.787 142.234C158.193 142.617 155.512 141.432 154.116 139.021C152.288 135.862 153.36 131.816 156.513 129.983C159.665 128.151 163.704 129.226 165.533 132.385C166.902 134.749 166.643 137.61 165.106 139.668L180.643 166.501Z" fill="#83292A"/>
<path d="M165.15 56.6353C165.15 59.8111 162.581 62.3849 159.412 62.3849C156.242 62.3849 153.673 59.8111 153.673 56.6353C153.673 53.4596 156.242 50.8857 159.412 50.8857C162.581 50.8857 165.15 53.4596 165.15 56.6353Z" fill="#B3B2B2"/>
<path d="M57.9816 73.4535C57.9816 76.6285 55.4121 79.2031 52.2434 79.2031C49.0739 79.2031 46.5044 76.6285 46.5044 73.4535C46.5044 70.2777 49.0739 67.7031 52.2434 67.7031C55.4121 67.7031 57.9816 70.2777 57.9816 73.4535Z" fill="#B3B2B2"/>
<path d="M125.984 158.265C125.984 161.441 123.415 164.015 120.245 164.015C117.076 164.015 114.507 161.441 114.507 158.265C114.507 155.089 117.076 152.515 120.245 152.515C123.415 152.515 125.984 155.089 125.984 158.265Z" fill="#B3B2B2"/>
<path d="M159.412 46.6289C153.998 46.6289 149.593 51.0424 149.593 56.4666C149.593 59.0284 150.604 61.3332 152.217 63.0781L135.13 93.06H112.242L99.2348 70.8424H61.5053C60.3713 66.6762 56.613 63.5914 52.0995 63.5914C46.686 63.5914 42.2812 68.0048 42.2812 73.429C42.2812 78.8532 46.686 83.2659 52.0995 83.2659C56.532 83.2659 60.2385 80.2931 61.4468 76.2411H96.0142L107.505 95.8833L94.788 118.203L113.476 151.238C111.693 153.016 110.571 155.454 110.571 158.168C110.571 163.592 114.976 168.005 120.389 168.005C125.803 168.005 130.208 163.592 130.208 158.168C130.208 152.743 125.803 148.332 120.389 148.332C119.647 148.332 118.934 148.437 118.241 148.596L101.087 118.166L112.528 98.5503H138.214L156.935 65.9382C157.73 66.1539 158.549 66.3035 159.412 66.3035C164.825 66.3035 169.23 61.8908 169.23 56.4666C169.23 51.0424 164.825 46.6289 159.412 46.6289ZM159.412 64.693C158.262 64.693 157.169 64.4511 156.175 64.0227L137.283 96.9422H111.607L99.2333 118.152L117.5 150.493C118.403 150.151 119.369 149.94 120.389 149.94C124.917 149.94 128.6 153.631 128.6 158.168C128.6 162.705 124.917 166.397 120.389 166.397C115.861 166.397 112.178 162.705 112.178 158.168C112.178 155.453 113.513 153.061 115.543 151.561L96.6375 118.208L109.361 95.872L96.936 74.6306L60.189 74.6337C59.6017 78.5962 56.2163 81.6555 52.0995 81.6555C47.5718 81.6555 43.8885 77.965 43.8885 73.429C43.8885 68.8923 47.5718 65.2018 52.0995 65.2018C56.295 65.2018 59.7247 68.3806 60.2122 72.4551L98.3138 72.4529L111.32 94.6704H136.063L154.235 62.7993C152.399 61.2896 151.201 59.0276 151.201 56.4666C151.201 51.9299 154.883 48.2393 159.412 48.2393C163.939 48.2393 167.623 51.9299 167.623 56.4666C167.623 61.0025 163.939 64.693 159.412 64.693Z" fill="#040707"/>
</g>
<defs>
<clipPath id="clip0_14026_12">
<rect width="192" height="192" fill="white"/>
</clipPath>
</defs>
</svg>
